<svg xmlns="http://www.w3.org/2000/svg" xmlns:xlink="http://www.w3.org/1999/xlink" width="500" zoomAndPan="magnify" viewBox="0 0 375 374.999991" height="500" preserveAspectRatio="xMidYMid meet" version="1.0"><defs><g/><clipPath id="e4f7be3863"><path d="M 147 90.078125 L 285.433594 90.078125 L 285.433594 263.292969 L 147 263.292969 Z M 147 90.078125 " clip-rule="nonzero"/></clipPath><clipPath id="40bdc1f94e"><path d="M 89.683594 132 L 222 132 L 222 263.292969 L 89.683594 263.292969 Z M 89.683594 132 " clip-rule="nonzero"/></clipPath><clipPath id="9397efc2b7"><path d="M 83.472656 40.660156 L 221.394531 40.660156 L 221.394531 155.410156 L 83.472656 155.410156 Z M 83.472656 40.660156 " clip-rule="nonzero"/></clipPath><clipPath id="ef3ff2c8a0"><path d="M 147 40.660156 L 221.394531 40.660156 L 221.394531 114 L 147 114 Z M 147 40.660156 " clip-rule="nonzero"/></clipPath></defs><g clip-path="url(#e4f7be3863)"><path fill="#ffffff" d="M 227.792969 205.265625 C 243.640625 205.265625 257.957031 198.847656 268.484375 188.324219 C 278.96875 177.917969 285.304688 163.597656 285.304688 147.632812 C 285.304688 131.789062 278.890625 117.46875 268.484375 106.945312 C 257.957031 96.421875 243.601562 90.082031 227.792969 90.082031 L 147.394531 90.082031 L 147.394531 113.007812 L 227.792969 113.007812 C 237.222656 113.007812 245.867188 116.921875 252.207031 123.179688 C 258.507812 129.519531 262.378906 138.125 262.378906 147.59375 C 262.378906 157.179688 258.46875 165.789062 252.207031 172.007812 C 245.867188 178.425781 237.261719 182.296875 227.792969 182.296875 L 147.433594 182.296875 L 147.433594 205.226562 L 188.199219 205.226562 L 238.394531 263.050781 L 268.679688 263.050781 L 218.519531 205.265625 Z M 227.792969 205.265625 " fill-opacity="1" fill-rule="nonzero"/></g><g clip-path="url(#40bdc1f94e)"><path fill="#ffffff" d="M 155.0625 240.203125 C 143.402344 240.203125 132.878906 235.46875 125.210938 227.683594 C 117.425781 220.09375 112.691406 209.371094 112.691406 197.714844 C 112.691406 186.171875 117.425781 175.53125 125.210938 167.859375 C 132.800781 160.074219 143.402344 155.339844 155.0625 155.339844 L 221.808594 155.339844 L 221.808594 132.296875 L 155.140625 132.296875 C 137.183594 132.296875 120.789062 139.652344 109.011719 151.625 C 97.039062 163.441406 89.683594 179.832031 89.683594 197.714844 C 89.683594 215.789062 97.039062 232.179688 109.011719 243.957031 C 120.867188 255.929688 137.261719 263.285156 155.140625 263.285156 L 195.398438 263.285156 L 195.398438 263.167969 L 175.523438 240.242188 L 155.0625 240.242188 Z M 155.0625 240.203125 " fill-opacity="1" fill-rule="nonzero"/></g><g fill="#ffffff" fill-opacity="1"><g transform="translate(45.584146, 325.848637)"><g><path d="M 22.140625 -5.359375 L 22.140625 0 L 2.453125 0 L 2.453125 -24.515625 L 21.6875 -24.515625 L 21.6875 -19.15625 L 9.3125 -19.15625 L 9.3125 -15.03125 L 20.21875 -15.03125 L 20.21875 -9.84375 L 9.3125 -9.84375 L 9.3125 -5.359375 Z M 22.140625 -5.359375 "/></g></g></g><g fill="#ffffff" fill-opacity="1"><g transform="translate(72.172155, 325.848637)"><g><path d="M 18.875 -4.765625 L 8.515625 -4.765625 L 6.578125 0 L -0.484375 0 L 10.328125 -24.515625 L 17.171875 -24.515625 L 28.03125 0 L 20.8125 0 Z M 16.84375 -9.875 L 13.703125 -17.71875 L 10.546875 -9.875 Z M 16.84375 -9.875 "/></g></g></g><g fill="#ffffff" fill-opacity="1"><g transform="translate(102.753454, 325.848637)"><g><path d="M 11.0625 0.484375 C 9.082031 0.484375 7.15625 0.238281 5.28125 -0.25 C 3.414062 -0.738281 1.898438 -1.390625 0.734375 -2.203125 L 3.015625 -7.328125 C 4.109375 -6.597656 5.378906 -6.007812 6.828125 -5.5625 C 8.273438 -5.125 9.703125 -4.90625 11.109375 -4.90625 C 13.765625 -4.90625 15.09375 -5.570312 15.09375 -6.90625 C 15.09375 -7.601562 14.710938 -8.117188 13.953125 -8.453125 C 13.203125 -8.796875 11.984375 -9.15625 10.296875 -9.53125 C 8.453125 -9.925781 6.910156 -10.347656 5.671875 -10.796875 C 4.429688 -11.253906 3.367188 -11.984375 2.484375 -12.984375 C 1.597656 -13.992188 1.15625 -15.351562 1.15625 -17.0625 C 1.15625 -18.550781 1.5625 -19.894531 2.375 -21.09375 C 3.195312 -22.300781 4.421875 -23.253906 6.046875 -23.953125 C 7.671875 -24.660156 9.660156 -25.015625 12.015625 -25.015625 C 13.628906 -25.015625 15.21875 -24.832031 16.78125 -24.46875 C 18.34375 -24.101562 19.71875 -23.570312 20.90625 -22.875 L 18.78125 -17.71875 C 16.445312 -18.988281 14.179688 -19.625 11.984375 -19.625 C 10.597656 -19.625 9.585938 -19.414062 8.953125 -19 C 8.328125 -18.59375 8.015625 -18.0625 8.015625 -17.40625 C 8.015625 -16.757812 8.390625 -16.269531 9.140625 -15.9375 C 9.890625 -15.613281 11.09375 -15.273438 12.75 -14.921875 C 14.613281 -14.523438 16.160156 -14.097656 17.390625 -13.640625 C 18.617188 -13.191406 19.679688 -12.46875 20.578125 -11.46875 C 21.472656 -10.476562 21.921875 -9.128906 21.921875 -7.421875 C 21.921875 -5.953125 21.515625 -4.617188 20.703125 -3.421875 C 19.890625 -2.234375 18.664062 -1.285156 17.03125 -0.578125 C 15.394531 0.128906 13.40625 0.484375 11.0625 0.484375 Z M 11.0625 0.484375 "/></g></g></g><g fill="#ffffff" fill-opacity="1"><g transform="translate(128.465736, 325.848637)"><g><path d="M 15.59375 -8.796875 L 15.59375 0 L 8.65625 0 L 8.65625 -8.890625 L -0.703125 -24.515625 L 6.625 -24.515625 L 12.4375 -14.78125 L 18.25 -24.515625 L 24.984375 -24.515625 Z M 15.59375 -8.796875 "/></g></g></g><g fill="#ffffff" fill-opacity="1"><g transform="translate(155.789351, 325.848637)"><g/></g></g><g fill="#ffffff" fill-opacity="1"><g transform="translate(169.034169, 325.848637)"><g><path d="M 20.734375 0 L 15.140625 -7.875 C 14.503906 -7.8125 13.847656 -7.78125 13.171875 -7.78125 L 6.578125 -7.78125 L 6.578125 0 L 4 0 L 4 -24.515625 L 13.171875 -24.515625 C 16.296875 -24.515625 18.742188 -23.765625 20.515625 -22.265625 C 22.296875 -20.773438 23.1875 -18.722656 23.1875 -16.109375 C 23.1875 -14.191406 22.703125 -12.570312 21.734375 -11.25 C 20.765625 -9.9375 19.378906 -8.988281 17.578125 -8.40625 L 23.578125 0 Z M 13.109375 -9.984375 C 15.535156 -9.984375 17.390625 -10.519531 18.671875 -11.59375 C 19.953125 -12.664062 20.59375 -14.171875 20.59375 -16.109375 C 20.59375 -18.097656 19.953125 -19.625 18.671875 -20.6875 C 17.390625 -21.75 15.535156 -22.28125 13.109375 -22.28125 L 6.578125 -22.28125 L 6.578125 -9.984375 Z M 13.109375 -9.984375 "/></g></g></g><g fill="#ffffff" fill-opacity="1"><g transform="translate(197.408647, 325.848637)"><g><path d="M 14.71875 0.203125 C 12.28125 0.203125 10.078125 -0.335938 8.109375 -1.421875 C 6.140625 -2.503906 4.597656 -3.988281 3.484375 -5.875 C 2.378906 -7.769531 1.828125 -9.898438 1.828125 -12.265625 C 1.828125 -14.617188 2.378906 -16.738281 3.484375 -18.625 C 4.597656 -20.519531 6.140625 -22.007812 8.109375 -23.09375 C 10.078125 -24.1875 12.28125 -24.734375 14.71875 -24.734375 C 17.144531 -24.734375 19.332031 -24.195312 21.28125 -23.125 C 23.226562 -22.050781 24.757812 -20.5625 25.875 -18.65625 C 27 -16.75 27.5625 -14.617188 27.5625 -12.265625 C 27.5625 -9.898438 27 -7.765625 25.875 -5.859375 C 24.757812 -3.960938 23.226562 -2.476562 21.28125 -1.40625 C 19.332031 -0.332031 17.144531 0.203125 14.71875 0.203125 Z M 14.71875 -2.109375 C 16.65625 -2.109375 18.40625 -2.546875 19.96875 -3.421875 C 21.53125 -4.296875 22.753906 -5.507812 23.640625 -7.0625 C 24.535156 -8.613281 24.984375 -10.347656 24.984375 -12.265625 C 24.984375 -14.179688 24.535156 -15.914062 23.640625 -17.46875 C 22.753906 -19.019531 21.53125 -20.234375 19.96875 -21.109375 C 18.40625 -21.984375 16.65625 -22.421875 14.71875 -22.421875 C 12.78125 -22.421875 11.019531 -21.984375 9.4375 -21.109375 C 7.863281 -20.234375 6.625 -19.019531 5.71875 -17.46875 C 4.820312 -15.914062 4.375 -14.179688 4.375 -12.265625 C 4.375 -10.347656 4.820312 -8.613281 5.71875 -7.0625 C 6.625 -5.507812 7.863281 -4.296875 9.4375 -3.421875 C 11.019531 -2.546875 12.78125 -2.109375 14.71875 -2.109375 Z M 14.71875 -2.109375 "/></g></g></g><g fill="#ffffff" fill-opacity="1"><g transform="translate(229.846479, 325.848637)"><g><path d="M 10.75 0.203125 C 8.925781 0.203125 7.179688 -0.0859375 5.515625 -0.671875 C 3.847656 -1.253906 2.554688 -2.023438 1.640625 -2.984375 L 2.65625 -4.96875 C 3.550781 -4.082031 4.734375 -3.363281 6.203125 -2.8125 C 7.671875 -2.269531 9.1875 -2 10.75 -2 C 12.945312 -2 14.59375 -2.398438 15.6875 -3.203125 C 16.789062 -4.003906 17.34375 -5.050781 17.34375 -6.34375 C 17.34375 -7.320312 17.039062 -8.101562 16.4375 -8.6875 C 15.84375 -9.269531 15.113281 -9.71875 14.25 -10.03125 C 13.394531 -10.351562 12.195312 -10.695312 10.65625 -11.0625 C 8.800781 -11.53125 7.328125 -11.976562 6.234375 -12.40625 C 5.140625 -12.84375 4.195312 -13.503906 3.40625 -14.390625 C 2.625 -15.285156 2.234375 -16.488281 2.234375 -18 C 2.234375 -19.238281 2.5625 -20.363281 3.21875 -21.375 C 3.875 -22.394531 4.878906 -23.207031 6.234375 -23.8125 C 7.585938 -24.425781 9.269531 -24.734375 11.28125 -24.734375 C 12.675781 -24.734375 14.046875 -24.539062 15.390625 -24.15625 C 16.734375 -23.769531 17.894531 -23.238281 18.875 -22.5625 L 18 -20.5 C 16.976562 -21.175781 15.882812 -21.679688 14.71875 -22.015625 C 13.550781 -22.359375 12.40625 -22.53125 11.28125 -22.53125 C 9.132812 -22.53125 7.515625 -22.113281 6.421875 -21.28125 C 5.335938 -20.445312 4.796875 -19.378906 4.796875 -18.078125 C 4.796875 -17.097656 5.09375 -16.304688 5.6875 -15.703125 C 6.28125 -15.109375 7.023438 -14.65625 7.921875 -14.34375 C 8.828125 -14.03125 10.039062 -13.6875 11.5625 -13.3125 C 13.351562 -12.863281 14.800781 -12.421875 15.90625 -11.984375 C 17.019531 -11.554688 17.960938 -10.90625 18.734375 -10.03125 C 19.503906 -9.15625 19.890625 -7.972656 19.890625 -6.484375 C 19.890625 -5.242188 19.554688 -4.113281 18.890625 -3.09375 C 18.234375 -2.082031 17.210938 -1.28125 15.828125 -0.6875 C 14.453125 -0.09375 12.757812 0.203125 10.75 0.203125 Z M 10.75 0.203125 "/></g></g></g><g fill="#ffffff" fill-opacity="1"><g transform="translate(254.437832, 325.848637)"><g><path d="M 8.765625 -22.28125 L 0.140625 -22.28125 L 0.140625 -24.515625 L 19.96875 -24.515625 L 19.96875 -22.28125 L 11.34375 -22.28125 L 11.34375 0 L 8.765625 0 Z M 8.765625 -22.28125 "/></g></g></g><g fill="#ffffff" fill-opacity="1"><g transform="translate(277.593009, 325.848637)"><g><path d="M 21.328125 -2.234375 L 21.328125 0 L 4 0 L 4 -24.515625 L 20.8125 -24.515625 L 20.8125 -22.28125 L 6.578125 -22.28125 L 6.578125 -13.5625 L 19.265625 -13.5625 L 19.265625 -11.34375 L 6.578125 -11.34375 L 6.578125 -2.234375 Z M 21.328125 -2.234375 "/></g></g></g><g fill="#ffffff" fill-opacity="1"><g transform="translate(304.075927, 325.848637)"><g><path d="M 20.734375 0 L 15.140625 -7.875 C 14.503906 -7.8125 13.847656 -7.78125 13.171875 -7.78125 L 6.578125 -7.78125 L 6.578125 0 L 4 0 L 4 -24.515625 L 13.171875 -24.515625 C 16.296875 -24.515625 18.742188 -23.765625 20.515625 -22.265625 C 22.296875 -20.773438 23.1875 -18.722656 23.1875 -16.109375 C 23.1875 -14.191406 22.703125 -12.570312 21.734375 -11.25 C 20.765625 -9.9375 19.378906 -8.988281 17.578125 -8.40625 L 23.578125 0 Z M 13.109375 -9.984375 C 15.535156 -9.984375 17.390625 -10.519531 18.671875 -11.59375 C 19.953125 -12.664062 20.59375 -14.171875 20.59375 -16.109375 C 20.59375 -18.097656 19.953125 -19.625 18.671875 -20.6875 C 17.390625 -21.75 15.535156 -22.28125 13.109375 -22.28125 L 6.578125 -22.28125 L 6.578125 -9.984375 Z M 13.109375 -9.984375 "/></g></g></g><g clip-path="url(#9397efc2b7)"><path fill="#ffffff" d="M 141.140625 40.207031 C 125.296875 40.207031 110.980469 46.625 100.457031 57.144531 C 89.976562 67.550781 83.636719 81.867188 83.636719 97.828125 C 83.636719 113.671875 90.054688 127.988281 100.457031 138.511719 C 110.980469 149.03125 125.335938 155.371094 141.140625 155.371094 L 221.527344 155.371094 L 221.527344 132.445312 L 141.140625 132.445312 C 131.714844 132.445312 123.066406 128.535156 116.730469 122.277344 C 110.433594 115.9375 106.5625 107.332031 106.5625 97.867188 C 106.5625 88.285156 110.472656 79.675781 116.730469 73.457031 C 123.066406 67.042969 131.675781 63.171875 141.140625 63.171875 L 221.488281 63.171875 L 221.488281 40.246094 L 180.726562 40.246094 L 130.539062 -17.566406 L 100.261719 -17.566406 L 150.410156 40.207031 Z M 141.140625 40.207031 " fill-opacity="1" fill-rule="nonzero"/></g><g clip-path="url(#ef3ff2c8a0)"><path fill="#ffffff" d="M 213.859375 5.277344 C 225.515625 5.277344 236.039062 10.011719 243.707031 17.792969 C 251.488281 25.382812 256.222656 36.101562 256.222656 47.757812 C 256.222656 59.296875 251.488281 69.9375 243.707031 77.605469 C 236.117188 85.390625 225.515625 90.121094 213.859375 90.121094 L 147.125 90.121094 L 147.125 113.160156 L 213.78125 113.160156 C 231.734375 113.160156 248.125 105.808594 259.898438 93.839844 C 271.871094 82.023438 279.222656 65.632812 279.222656 47.757812 C 279.222656 29.6875 271.871094 13.296875 259.898438 1.523438 C 248.046875 -10.449219 231.65625 -17.800781 213.78125 -17.800781 L 173.53125 -17.800781 L 173.53125 -17.683594 L 193.402344 5.238281 L 213.859375 5.238281 Z M 213.859375 5.277344 " fill-opacity="1" fill-rule="nonzero"/></g></svg>