<svg xmlns="http://www.w3.org/2000/svg" xmlns:xlink="http://www.w3.org/1999/xlink" width="500" zoomAndPan="magnify" viewBox="0 0 375 374.999991" height="500" preserveAspectRatio="xMidYMid meet" version="1.0"><defs><clipPath id="3349eb7e1f"><path d="M 131 94.558594 L 338.867188 94.558594 L 338.867188 355 L 131 355 Z M 131 94.558594 " clip-rule="nonzero"/></clipPath><clipPath id="6fac9f5cb5"><path d="M 44.867188 158 L 244 158 L 244 355.503906 L 44.867188 355.503906 Z M 44.867188 158 " clip-rule="nonzero"/></clipPath><clipPath id="5be7369b27"><path d="M 36.066406 19.617188 L 243.050781 19.617188 L 243.050781 192.867188 L 36.066406 192.867188 Z M 36.066406 19.617188 " clip-rule="nonzero"/></clipPath><clipPath id="0ec53a44cf"><path d="M 131 19.617188 L 243.050781 19.617188 L 243.050781 130 L 131 130 Z M 131 19.617188 " clip-rule="nonzero"/></clipPath></defs><g clip-path="url(#3349eb7e1f)"><path fill="#ff5757" d="M 252.6875 267.886719 C 276.53125 267.886719 298.078125 258.234375 313.914062 242.394531 C 329.691406 226.734375 339.230469 205.1875 339.230469 181.167969 C 339.230469 157.324219 329.574219 135.777344 313.914062 119.941406 C 298.078125 104.105469 276.472656 94.566406 252.6875 94.566406 L 131.703125 94.566406 L 131.703125 129.066406 L 252.6875 129.066406 C 266.875 129.066406 279.886719 134.953125 289.421875 144.375 C 298.902344 153.910156 304.730469 166.863281 304.730469 181.109375 C 304.730469 195.535156 298.84375 208.484375 289.421875 217.847656 C 279.886719 227.5 266.933594 233.328125 252.6875 233.328125 L 131.761719 233.328125 L 131.761719 267.828125 L 193.105469 267.828125 L 268.640625 354.84375 L 314.207031 354.84375 L 238.734375 267.886719 Z M 252.6875 267.886719 " fill-opacity="1" fill-rule="nonzero"/></g><g clip-path="url(#6fac9f5cb5)"><path fill="#ff5757" d="M 143.242188 320.460938 C 125.699219 320.460938 109.863281 313.335938 98.324219 301.621094 C 86.605469 290.199219 79.484375 274.070312 79.484375 256.527344 C 79.484375 239.160156 86.605469 223.144531 98.324219 211.605469 C 109.742188 199.890625 125.699219 192.765625 143.242188 192.765625 L 243.679688 192.765625 L 243.679688 158.089844 L 143.359375 158.089844 C 116.335938 158.089844 91.667969 169.160156 73.949219 187.171875 C 55.933594 204.953125 44.867188 229.621094 44.867188 256.527344 C 44.867188 283.726562 55.933594 308.390625 73.949219 326.113281 C 91.789062 344.128906 116.457031 355.195312 143.359375 355.195312 L 203.941406 355.195312 L 203.941406 355.019531 L 174.03125 320.519531 L 143.242188 320.519531 Z M 143.242188 320.460938 " fill-opacity="1" fill-rule="nonzero"/></g><g clip-path="url(#5be7369b27)"><path fill="#ff5757" d="M 122.296875 19.523438 C 98.460938 19.523438 76.917969 29.175781 61.085938 45.007812 C 45.308594 60.664062 35.773438 82.207031 35.773438 106.222656 C 35.773438 130.058594 45.429688 151.601562 61.085938 167.433594 C 76.917969 183.269531 98.519531 192.804688 122.296875 192.804688 L 243.25 192.804688 L 243.25 158.3125 L 122.296875 158.3125 C 108.113281 158.3125 95.105469 152.425781 85.570312 143.007812 C 76.09375 133.472656 70.265625 120.523438 70.265625 106.28125 C 70.265625 91.859375 76.152344 78.910156 85.570312 69.554688 C 95.105469 59.898438 108.054688 54.074219 122.296875 54.074219 L 243.191406 54.074219 L 243.191406 19.582031 L 181.863281 19.582031 L 106.347656 -67.410156 L 60.789062 -67.410156 L 136.246094 19.523438 Z M 122.296875 19.523438 " fill-opacity="1" fill-rule="nonzero"/></g><g clip-path="url(#0ec53a44cf)"><path fill="#ff5757" d="M 231.714844 -33.039062 C 249.253906 -33.039062 265.089844 -25.914062 276.625 -14.203125 C 288.335938 -2.785156 295.460938 13.34375 295.460938 30.882812 C 295.460938 48.246094 288.335938 64.253906 276.625 75.792969 C 265.207031 87.503906 249.253906 94.625 231.714844 94.625 L 131.304688 94.625 L 131.304688 129.292969 L 231.597656 129.292969 C 258.613281 129.292969 283.277344 118.230469 300.992188 100.21875 C 319.003906 82.441406 330.066406 57.78125 330.066406 30.882812 C 330.066406 3.691406 319.003906 -20.972656 300.992188 -38.6875 C 283.15625 -56.699219 258.496094 -67.765625 231.597656 -67.765625 L 171.03125 -67.765625 L 171.03125 -67.585938 L 200.933594 -33.097656 L 231.714844 -33.097656 Z M 231.714844 -33.039062 " fill-opacity="1" fill-rule="nonzero"/></g></svg>