<svg xmlns="http://www.w3.org/2000/svg" xmlns:xlink="http://www.w3.org/1999/xlink" width="500" zoomAndPan="magnify" viewBox="0 0 375 374.999991" height="500" preserveAspectRatio="xMidYMid meet" version="1.0"><defs><g/><clipPath id="ec42939892"><path d="M 147 90.078125 L 285.433594 90.078125 L 285.433594 263.292969 L 147 263.292969 Z M 147 90.078125 " clip-rule="nonzero"/></clipPath><clipPath id="943d2e4ec3"><path d="M 89.683594 132 L 222 132 L 222 263.292969 L 89.683594 263.292969 Z M 89.683594 132 " clip-rule="nonzero"/></clipPath><clipPath id="c9fceea054"><path d="M 83.472656 40.660156 L 221.394531 40.660156 L 221.394531 155.410156 L 83.472656 155.410156 Z M 83.472656 40.660156 " clip-rule="nonzero"/></clipPath><clipPath id="e3626a9d20"><path d="M 147 40.660156 L 221.394531 40.660156 L 221.394531 114 L 147 114 Z M 147 40.660156 " clip-rule="nonzero"/></clipPath></defs><g clip-path="url(#ec42939892)"><path fill="#000000" d="M 227.882812 205.242188 C 243.742188 205.242188 258.070312 198.824219 268.601562 188.304688 C 279.09375 177.898438 285.433594 163.582031 285.433594 147.621094 C 285.433594 131.78125 279.015625 117.464844 268.601562 106.941406 C 258.070312 96.417969 243.703125 90.082031 227.882812 90.082031 L 147.429688 90.082031 L 147.429688 113.003906 L 227.882812 113.003906 C 237.320312 113.003906 245.972656 116.917969 252.3125 123.175781 C 258.617188 129.511719 262.492188 138.117188 262.492188 147.582031 C 262.492188 157.167969 258.578125 165.773438 252.3125 171.992188 C 245.972656 178.40625 237.359375 182.28125 227.882812 182.28125 L 147.46875 182.28125 L 147.46875 205.203125 L 188.265625 205.203125 L 238.496094 263.015625 L 268.796875 263.015625 L 218.605469 205.242188 Z M 227.882812 205.242188 " fill-opacity="1" fill-rule="nonzero"/></g><g clip-path="url(#943d2e4ec3)"><path fill="#000000" d="M 155.105469 240.171875 C 143.4375 240.171875 132.90625 235.4375 125.234375 227.652344 C 117.441406 220.066406 112.707031 209.347656 112.707031 197.691406 C 112.707031 186.152344 117.441406 175.511719 125.234375 167.84375 C 132.828125 160.0625 143.4375 155.328125 155.105469 155.328125 L 221.894531 155.328125 L 221.894531 132.289062 L 155.183594 132.289062 C 137.214844 132.289062 120.808594 139.644531 109.023438 151.613281 C 97.046875 163.425781 89.683594 179.816406 89.683594 197.691406 C 89.683594 215.761719 97.046875 232.152344 109.023438 243.925781 C 120.886719 255.894531 137.292969 263.25 155.183594 263.25 L 195.46875 263.25 L 195.46875 263.132812 L 175.582031 240.210938 L 155.105469 240.210938 Z M 155.105469 240.171875 " fill-opacity="1" fill-rule="nonzero"/></g><g fill="#000000" fill-opacity="1"><g transform="translate(45.584146, 325.848606)"><g><path d="M 22.140625 -5.359375 L 22.140625 0 L 2.453125 0 L 2.453125 -24.515625 L 21.6875 -24.515625 L 21.6875 -19.15625 L 9.3125 -19.15625 L 9.3125 -15.03125 L 20.21875 -15.03125 L 20.21875 -9.84375 L 9.3125 -9.84375 L 9.3125 -5.359375 Z M 22.140625 -5.359375 "/></g></g></g><g fill="#000000" fill-opacity="1"><g transform="translate(72.172155, 325.848606)"><g><path d="M 18.875 -4.765625 L 8.515625 -4.765625 L 6.578125 0 L -0.484375 0 L 10.328125 -24.515625 L 17.171875 -24.515625 L 28.03125 0 L 20.8125 0 Z M 16.84375 -9.875 L 13.703125 -17.71875 L 10.546875 -9.875 Z M 16.84375 -9.875 "/></g></g></g><g fill="#000000" fill-opacity="1"><g transform="translate(102.753454, 325.848606)"><g><path d="M 11.0625 0.484375 C 9.082031 0.484375 7.15625 0.238281 5.28125 -0.25 C 3.414062 -0.738281 1.898438 -1.390625 0.734375 -2.203125 L 3.015625 -7.328125 C 4.109375 -6.597656 5.378906 -6.007812 6.828125 -5.5625 C 8.273438 -5.125 9.703125 -4.90625 11.109375 -4.90625 C 13.765625 -4.90625 15.09375 -5.570312 15.09375 -6.90625 C 15.09375 -7.601562 14.710938 -8.117188 13.953125 -8.453125 C 13.203125 -8.796875 11.984375 -9.15625 10.296875 -9.53125 C 8.453125 -9.925781 6.910156 -10.347656 5.671875 -10.796875 C 4.429688 -11.253906 3.367188 -11.984375 2.484375 -12.984375 C 1.597656 -13.992188 1.15625 -15.351562 1.15625 -17.0625 C 1.15625 -18.550781 1.5625 -19.894531 2.375 -21.09375 C 3.195312 -22.300781 4.421875 -23.253906 6.046875 -23.953125 C 7.671875 -24.660156 9.660156 -25.015625 12.015625 -25.015625 C 13.628906 -25.015625 15.21875 -24.832031 16.78125 -24.46875 C 18.34375 -24.101562 19.71875 -23.570312 20.90625 -22.875 L 18.78125 -17.71875 C 16.445312 -18.988281 14.179688 -19.625 11.984375 -19.625 C 10.597656 -19.625 9.585938 -19.414062 8.953125 -19 C 8.328125 -18.59375 8.015625 -18.0625 8.015625 -17.40625 C 8.015625 -16.757812 8.390625 -16.269531 9.140625 -15.9375 C 9.890625 -15.613281 11.09375 -15.273438 12.75 -14.921875 C 14.613281 -14.523438 16.160156 -14.097656 17.390625 -13.640625 C 18.617188 -13.191406 19.679688 -12.46875 20.578125 -11.46875 C 21.472656 -10.476562 21.921875 -9.128906 21.921875 -7.421875 C 21.921875 -5.953125 21.515625 -4.617188 20.703125 -3.421875 C 19.890625 -2.234375 18.664062 -1.285156 17.03125 -0.578125 C 15.394531 0.128906 13.40625 0.484375 11.0625 0.484375 Z M 11.0625 0.484375 "/></g></g></g><g fill="#000000" fill-opacity="1"><g transform="translate(128.465736, 325.848606)"><g><path d="M 15.59375 -8.796875 L 15.59375 0 L 8.65625 0 L 8.65625 -8.890625 L -0.703125 -24.515625 L 6.625 -24.515625 L 12.4375 -14.78125 L 18.25 -24.515625 L 24.984375 -24.515625 Z M 15.59375 -8.796875 "/></g></g></g><g fill="#000000" fill-opacity="1"><g transform="translate(155.789351, 325.848606)"><g/></g></g><g fill="#000000" fill-opacity="1"><g transform="translate(169.034169, 325.848606)"><g><path d="M 20.734375 0 L 15.140625 -7.875 C 14.503906 -7.8125 13.847656 -7.78125 13.171875 -7.78125 L 6.578125 -7.78125 L 6.578125 0 L 4 0 L 4 -24.515625 L 13.171875 -24.515625 C 16.296875 -24.515625 18.742188 -23.765625 20.515625 -22.265625 C 22.296875 -20.773438 23.1875 -18.722656 23.1875 -16.109375 C 23.1875 -14.191406 22.703125 -12.570312 21.734375 -11.25 C 20.765625 -9.9375 19.378906 -8.988281 17.578125 -8.40625 L 23.578125 0 Z M 13.109375 -9.984375 C 15.535156 -9.984375 17.390625 -10.519531 18.671875 -11.59375 C 19.953125 -12.664062 20.59375 -14.171875 20.59375 -16.109375 C 20.59375 -18.097656 19.953125 -19.625 18.671875 -20.6875 C 17.390625 -21.75 15.535156 -22.28125 13.109375 -22.28125 L 6.578125 -22.28125 L 6.578125 -9.984375 Z M 13.109375 -9.984375 "/></g></g></g><g fill="#000000" fill-opacity="1"><g transform="translate(197.408647, 325.848606)"><g><path d="M 14.71875 0.203125 C 12.28125 0.203125 10.078125 -0.335938 8.109375 -1.421875 C 6.140625 -2.503906 4.597656 -3.988281 3.484375 -5.875 C 2.378906 -7.769531 1.828125 -9.898438 1.828125 -12.265625 C 1.828125 -14.617188 2.378906 -16.738281 3.484375 -18.625 C 4.597656 -20.519531 6.140625 -22.007812 8.109375 -23.09375 C 10.078125 -24.1875 12.28125 -24.734375 14.71875 -24.734375 C 17.144531 -24.734375 19.332031 -24.195312 21.28125 -23.125 C 23.226562 -22.050781 24.757812 -20.5625 25.875 -18.65625 C 27 -16.75 27.5625 -14.617188 27.5625 -12.265625 C 27.5625 -9.898438 27 -7.765625 25.875 -5.859375 C 24.757812 -3.960938 23.226562 -2.476562 21.28125 -1.40625 C 19.332031 -0.332031 17.144531 0.203125 14.71875 0.203125 Z M 14.71875 -2.109375 C 16.65625 -2.109375 18.40625 -2.546875 19.96875 -3.421875 C 21.53125 -4.296875 22.753906 -5.507812 23.640625 -7.0625 C 24.535156 -8.613281 24.984375 -10.347656 24.984375 -12.265625 C 24.984375 -14.179688 24.535156 -15.914062 23.640625 -17.46875 C 22.753906 -19.019531 21.53125 -20.234375 19.96875 -21.109375 C 18.40625 -21.984375 16.65625 -22.421875 14.71875 -22.421875 C 12.78125 -22.421875 11.019531 -21.984375 9.4375 -21.109375 C 7.863281 -20.234375 6.625 -19.019531 5.71875 -17.46875 C 4.820312 -15.914062 4.375 -14.179688 4.375 -12.265625 C 4.375 -10.347656 4.820312 -8.613281 5.71875 -7.0625 C 6.625 -5.507812 7.863281 -4.296875 9.4375 -3.421875 C 11.019531 -2.546875 12.78125 -2.109375 14.71875 -2.109375 Z M 14.71875 -2.109375 "/></g></g></g><g fill="#000000" fill-opacity="1"><g transform="translate(229.846479, 325.848606)"><g><path d="M 10.75 0.203125 C 8.925781 0.203125 7.179688 -0.0859375 5.515625 -0.671875 C 3.847656 -1.253906 2.554688 -2.023438 1.640625 -2.984375 L 2.65625 -4.96875 C 3.550781 -4.082031 4.734375 -3.363281 6.203125 -2.8125 C 7.671875 -2.269531 9.1875 -2 10.75 -2 C 12.945312 -2 14.59375 -2.398438 15.6875 -3.203125 C 16.789062 -4.003906 17.34375 -5.050781 17.34375 -6.34375 C 17.34375 -7.320312 17.039062 -8.101562 16.4375 -8.6875 C 15.84375 -9.269531 15.113281 -9.71875 14.25 -10.03125 C 13.394531 -10.351562 12.195312 -10.695312 10.65625 -11.0625 C 8.800781 -11.53125 7.328125 -11.976562 6.234375 -12.40625 C 5.140625 -12.84375 4.195312 -13.503906 3.40625 -14.390625 C 2.625 -15.285156 2.234375 -16.488281 2.234375 -18 C 2.234375 -19.238281 2.5625 -20.363281 3.21875 -21.375 C 3.875 -22.394531 4.878906 -23.207031 6.234375 -23.8125 C 7.585938 -24.425781 9.269531 -24.734375 11.28125 -24.734375 C 12.675781 -24.734375 14.046875 -24.539062 15.390625 -24.15625 C 16.734375 -23.769531 17.894531 -23.238281 18.875 -22.5625 L 18 -20.5 C 16.976562 -21.175781 15.882812 -21.679688 14.71875 -22.015625 C 13.550781 -22.359375 12.40625 -22.53125 11.28125 -22.53125 C 9.132812 -22.53125 7.515625 -22.113281 6.421875 -21.28125 C 5.335938 -20.445312 4.796875 -19.378906 4.796875 -18.078125 C 4.796875 -17.097656 5.09375 -16.304688 5.6875 -15.703125 C 6.28125 -15.109375 7.023438 -14.65625 7.921875 -14.34375 C 8.828125 -14.03125 10.039062 -13.6875 11.5625 -13.3125 C 13.351562 -12.863281 14.800781 -12.421875 15.90625 -11.984375 C 17.019531 -11.554688 17.960938 -10.90625 18.734375 -10.03125 C 19.503906 -9.15625 19.890625 -7.972656 19.890625 -6.484375 C 19.890625 -5.242188 19.554688 -4.113281 18.890625 -3.09375 C 18.234375 -2.082031 17.210938 -1.28125 15.828125 -0.6875 C 14.453125 -0.09375 12.757812 0.203125 10.75 0.203125 Z M 10.75 0.203125 "/></g></g></g><g fill="#000000" fill-opacity="1"><g transform="translate(254.437832, 325.848606)"><g><path d="M 8.765625 -22.28125 L 0.140625 -22.28125 L 0.140625 -24.515625 L 19.96875 -24.515625 L 19.96875 -22.28125 L 11.34375 -22.28125 L 11.34375 0 L 8.765625 0 Z M 8.765625 -22.28125 "/></g></g></g><g fill="#000000" fill-opacity="1"><g transform="translate(277.593009, 325.848606)"><g><path d="M 21.328125 -2.234375 L 21.328125 0 L 4 0 L 4 -24.515625 L 20.8125 -24.515625 L 20.8125 -22.28125 L 6.578125 -22.28125 L 6.578125 -13.5625 L 19.265625 -13.5625 L 19.265625 -11.34375 L 6.578125 -11.34375 L 6.578125 -2.234375 Z M 21.328125 -2.234375 "/></g></g></g><g fill="#000000" fill-opacity="1"><g transform="translate(304.075927, 325.848606)"><g><path d="M 20.734375 0 L 15.140625 -7.875 C 14.503906 -7.8125 13.847656 -7.78125 13.171875 -7.78125 L 6.578125 -7.78125 L 6.578125 0 L 4 0 L 4 -24.515625 L 13.171875 -24.515625 C 16.296875 -24.515625 18.742188 -23.765625 20.515625 -22.265625 C 22.296875 -20.773438 23.1875 -18.722656 23.1875 -16.109375 C 23.1875 -14.191406 22.703125 -12.570312 21.734375 -11.25 C 20.765625 -9.9375 19.378906 -8.988281 17.578125 -8.40625 L 23.578125 0 Z M 13.109375 -9.984375 C 15.535156 -9.984375 17.390625 -10.519531 18.671875 -11.59375 C 19.953125 -12.664062 20.59375 -14.171875 20.59375 -16.109375 C 20.59375 -18.097656 19.953125 -19.625 18.671875 -20.6875 C 17.390625 -21.75 15.535156 -22.28125 13.109375 -22.28125 L 6.578125 -22.28125 L 6.578125 -9.984375 Z M 13.109375 -9.984375 "/></g></g></g><g clip-path="url(#c9fceea054)"><path fill="#000000" d="M 141.023438 40.207031 C 125.167969 40.207031 110.839844 46.625 100.308594 57.144531 C 89.816406 67.550781 83.472656 81.867188 83.472656 97.828125 C 83.472656 113.671875 89.894531 127.988281 100.308594 138.511719 C 110.839844 149.03125 125.207031 155.371094 141.023438 155.371094 L 221.476562 155.371094 L 221.476562 132.445312 L 141.023438 132.445312 C 131.589844 132.445312 122.9375 128.535156 116.59375 122.277344 C 110.292969 115.9375 106.414062 107.332031 106.414062 97.867188 C 106.414062 88.285156 110.332031 79.675781 116.59375 73.457031 C 122.9375 67.042969 131.550781 63.171875 141.023438 63.171875 L 221.4375 63.171875 L 221.4375 40.246094 L 180.644531 40.246094 L 130.414062 -17.566406 L 100.113281 -17.566406 L 150.304688 40.207031 Z M 141.023438 40.207031 " fill-opacity="1" fill-rule="nonzero"/></g><g clip-path="url(#e3626a9d20)"><path fill="#000000" d="M 213.804688 5.277344 C 225.472656 5.277344 236.003906 10.011719 243.675781 17.792969 C 251.464844 25.382812 256.203125 36.101562 256.203125 47.757812 C 256.203125 59.296875 251.464844 69.9375 243.675781 77.605469 C 236.082031 85.390625 225.472656 90.121094 213.804688 90.121094 L 147.015625 90.121094 L 147.015625 113.160156 L 213.726562 113.160156 C 231.695312 113.160156 248.101562 105.808594 259.882812 93.839844 C 271.863281 82.023438 279.222656 65.632812 279.222656 47.757812 C 279.222656 29.6875 271.863281 13.296875 259.882812 1.523438 C 248.023438 -10.449219 231.617188 -17.800781 213.726562 -17.800781 L 173.441406 -17.800781 L 173.441406 -17.683594 L 193.328125 5.238281 L 213.804688 5.238281 Z M 213.804688 5.277344 " fill-opacity="1" fill-rule="nonzero"/></g></svg>