<svg xmlns="http://www.w3.org/2000/svg" xmlns:xlink="http://www.w3.org/1999/xlink" width="500" zoomAndPan="magnify" viewBox="0 0 375 374.999991" height="500" preserveAspectRatio="xMidYMid meet" version="1.0"><defs><clipPath id="6f8a1070e5"><path d="M 131 94.558594 L 338.867188 94.558594 L 338.867188 355.503906 L 131 355.503906 Z M 131 94.558594 " clip-rule="nonzero"/></clipPath><clipPath id="aba793f700"><path d="M 44.867188 158 L 244 158 L 244 355.503906 L 44.867188 355.503906 Z M 44.867188 158 " clip-rule="nonzero"/></clipPath><clipPath id="24fb94448e"><path d="M 36.066406 19.617188 L 243.050781 19.617188 L 243.050781 192.867188 L 36.066406 192.867188 Z M 36.066406 19.617188 " clip-rule="nonzero"/></clipPath><clipPath id="f755e5559d"><path d="M 131 19.617188 L 243.050781 19.617188 L 243.050781 130 L 131 130 Z M 131 19.617188 " clip-rule="nonzero"/></clipPath></defs><g clip-path="url(#6f8a1070e5)"><path fill="#000000" d="M 252.429688 268.050781 C 276.242188 268.050781 297.765625 258.386719 313.582031 242.535156 C 329.339844 226.859375 338.867188 205.292969 338.867188 181.25 C 338.867188 157.382812 329.222656 135.816406 313.582031 119.964844 C 297.765625 104.113281 276.183594 94.566406 252.429688 94.566406 L 131.597656 94.566406 L 131.597656 129.097656 L 252.429688 129.097656 C 266.601562 129.097656 279.59375 134.992188 289.121094 144.421875 C 298.589844 153.964844 304.410156 166.929688 304.410156 181.191406 C 304.410156 195.628906 298.527344 208.59375 289.121094 217.960938 C 279.59375 227.628906 266.660156 233.460938 252.429688 233.460938 L 131.65625 233.460938 L 131.65625 267.992188 L 192.925781 267.992188 L 268.363281 355.089844 L 313.875 355.089844 L 238.496094 268.050781 Z M 252.429688 268.050781 " fill-opacity="1" fill-rule="nonzero"/></g><g clip-path="url(#aba793f700)"><path fill="#000000" d="M 143.121094 320.675781 C 125.597656 320.675781 109.78125 313.542969 98.257812 301.816406 C 86.554688 290.386719 79.441406 274.238281 79.441406 256.679688 C 79.441406 239.292969 86.554688 223.265625 98.257812 211.714844 C 109.664062 199.988281 125.597656 192.859375 143.121094 192.859375 L 243.433594 192.859375 L 243.433594 158.152344 L 143.238281 158.152344 C 116.25 158.152344 91.613281 169.230469 73.914062 187.261719 C 55.921875 205.058594 44.867188 229.75 44.867188 256.679688 C 44.867188 283.902344 55.921875 308.59375 73.914062 326.332031 C 91.730469 344.363281 116.367188 355.441406 143.238281 355.441406 L 203.742188 355.441406 L 203.742188 355.265625 L 173.875 320.734375 L 143.121094 320.734375 Z M 143.121094 320.675781 " fill-opacity="1" fill-rule="nonzero"/></g><g clip-path="url(#24fb94448e)"><path fill="#000000" d="M 122.503906 19.320312 C 98.691406 19.320312 77.167969 28.984375 61.351562 44.835938 C 45.59375 60.511719 36.066406 82.078125 36.066406 106.121094 C 36.066406 129.988281 45.710938 151.554688 61.351562 167.40625 C 77.167969 183.257812 98.75 192.804688 122.503906 192.804688 L 243.339844 192.804688 L 243.339844 158.273438 L 122.503906 158.273438 C 108.332031 158.273438 95.339844 152.378906 85.8125 142.949219 C 76.347656 133.402344 70.523438 120.441406 70.523438 106.179688 C 70.523438 91.742188 76.40625 78.777344 85.8125 69.410156 C 95.339844 59.746094 108.273438 53.910156 122.503906 53.910156 L 243.28125 53.910156 L 243.28125 19.378906 L 182.011719 19.378906 L 106.570312 -67.714844 L 61.058594 -67.714844 L 136.441406 19.320312 Z M 122.503906 19.320312 " fill-opacity="1" fill-rule="nonzero"/></g><g clip-path="url(#f755e5559d)"><path fill="#000000" d="M 231.8125 -33.300781 C 249.335938 -33.300781 265.152344 -26.171875 276.679688 -14.445312 C 288.378906 -3.011719 295.492188 13.132812 295.492188 30.695312 C 295.492188 48.078125 288.378906 64.105469 276.679688 75.65625 C 265.269531 87.382812 249.335938 94.511719 231.8125 94.511719 L 131.5 94.511719 L 131.5 129.21875 L 231.695312 129.21875 C 258.683594 129.21875 283.324219 118.140625 301.019531 100.109375 C 319.015625 82.3125 330.066406 57.625 330.066406 30.695312 C 330.066406 3.46875 319.015625 -21.222656 301.019531 -38.957031 C 283.203125 -56.988281 258.566406 -68.070312 231.695312 -68.070312 L 171.191406 -68.070312 L 171.191406 -67.890625 L 201.0625 -33.359375 L 231.8125 -33.359375 Z M 231.8125 -33.300781 " fill-opacity="1" fill-rule="nonzero"/></g></svg>